# xmcd
#
# Track frame offsets: 
#        150
#        9453
#        23707
#        44786
#        67815
#        96768
#        120921
#        153025
#        177629
#        194433
#        205687
#        219265
#        246269
#
# Disc length: 3591 seconds
#
# Revision: 0
# Processed by: cddbd v1.5.2PL0 Copyright (c) Steve Scherf et al.
# Submitted via: ExactAudioCopy v0.95b4
#
DISCID=a70e050d
DTITLE=Tom Waits - Vancouver '99
DYEAR=1999
DGENRE=Blues
TTITLE0=Harry's Harbour Bizarre, The Black Rider
TTITLE1=Jockey Full of Bourbon
TTITLE2=Jesus Gonna Be Here
TTITLE3=Earth Died Screaming
TTITLE4=Get Behind the Mule
TTITLE5=Down Down Down
TTITLE6=Hold On
TTITLE7=Tango 'Til They're Sore
TTITLE8=House Where Nobody Lives
TTITLE9=intro
TTITLE10=Picture in a Frame
TTITLE11=16 Shells from a Thirty-Ought-Six
TTITLE12=I'll Shoot the Moon
EXTD=
EXTT0=
EXTT1=
EXTT2=
EXTT3=
EXTT4=
EXTT5=
EXTT6=
EXTT7=
EXTT8=
EXTT9=
EXTT10=
EXTT11=
EXTT12=
PLAYORDER=
